<svg width="1440" height="200" viewBox="0 0 1440 200" xmlns="http://www.w3.org/2000/svg">
  <!-- Background gradient -->
  <linearGradient id="banner-gradient" x1="0%" y1="0%" x2="100%" y2="0%">
    <stop offset="0%" style="stop-color:#4a5a2b;stop-opacity:0.08"/>
    <stop offset="50%" style="stop-color:#6b7f3e;stop-opacity:0.05"/>
    <stop offset="100%" style="stop-color:#4a5a2b;stop-opacity:0.08"/>
  </linearGradient>
  <rect width="1440" height="200" fill="url(#banner-gradient)"/>
  
  <!-- Minimalist herb shapes on the left -->
  <g opacity="0.2" transform="translate(100, 50)">
    <path d="M0,80 C20,40 60,60 40,100" stroke="#6b7f3e" stroke-width="2" fill="none"/>
    <path d="M20,30 C40,10 70,30 50,70" stroke="#6b7f3e" stroke-width="2" fill="none"/>
    <path d="M15,60 C25,40 45,50 35,80" stroke="#6b7f3e" stroke-width="2" fill="none"/>
    <circle cx="40" cy="100" r="3" fill="#6b7f3e"/>
    <circle cx="50" cy="70" r="3" fill="#6b7f3e"/>
    <circle cx="35" cy="80" r="3" fill="#6b7f3e"/>
  </g>
  
  <!-- Minimalist herb shapes on the right -->
  <g opacity="0.2" transform="translate(1240, 40)">
    <path d="M100,80 C80,40 40,60 60,100" stroke="#6b7f3e" stroke-width="2" fill="none"/>
    <path d="M80,30 C60,10 30,30 50,70" stroke="#6b7f3e" stroke-width="2" fill="none"/>
    <path d="M85,60 C75,40 55,50 65,80" stroke="#6b7f3e" stroke-width="2" fill="none"/>
    <circle cx="60" cy="100" r="3" fill="#6b7f3e"/>
    <circle cx="50" cy="70" r="3" fill="#6b7f3e"/>
    <circle cx="65" cy="80" r="3" fill="#6b7f3e"/>
  </g>
  
  <!-- Subtle diagonal lines -->
  <line x1="0" y1="0" x2="200" y2="200" stroke="#6b7f3e" stroke-width="0.5" opacity="0.1"/>
  <line x1="1440" y1="0" x2="1240" y2="200" stroke="#6b7f3e" stroke-width="0.5" opacity="0.1"/>
</svg> 