<svg width="100" height="100" viewBox="0 0 100 100" xmlns="http://www.w3.org/2000/svg">
  <defs>
    <pattern id="moroccan-banner-pattern" x="0" y="0" width="100" height="100" patternUnits="userSpaceOnUse">
      <!-- Background is transparent to overlay on colored backgrounds -->
      
      <!-- Main pattern elements -->
      <path d="M50,20 L80,50 L50,80 L20,50 Z" fill="none" stroke="#d3c8ab" stroke-width="1" opacity="0.3"/>
      <path d="M50,25 L75,50 L50,75 L25,50 Z" fill="none" stroke="#d3c8ab" stroke-width="1" opacity="0.3"/>
      
      <!-- Center decoration -->
      <circle cx="50" cy="50" r="5" fill="none" stroke="#d3c8ab" stroke-width="1" opacity="0.4"/>
      <circle cx="50" cy="50" r="2" fill="#d3c8ab" opacity="0.4"/>
      
      <!-- Corner stars - top left -->
      <path d="M10,10 L15,10 L12.5,15 Z" fill="#d3c8ab" opacity="0.3"/>
      <path d="M10,15 L15,15 L12.5,10 Z" fill="#d3c8ab" opacity="0.3"/>
      
      <!-- Corner stars - top right -->
      <path d="M85,10 L90,10 L87.5,15 Z" fill="#d3c8ab" opacity="0.3"/>
      <path d="M85,15 L90,15 L87.5,10 Z" fill="#d3c8ab" opacity="0.3"/>
      
      <!-- Corner stars - bottom left -->
      <path d="M10,85 L15,85 L12.5,90 Z" fill="#d3c8ab" opacity="0.3"/>
      <path d="M10,90 L15,90 L12.5,85 Z" fill="#d3c8ab" opacity="0.3"/>
      
      <!-- Corner stars - bottom right -->
      <path d="M85,85 L90,85 L87.5,90 Z" fill="#d3c8ab" opacity="0.3"/>
      <path d="M85,90 L90,90 L87.5,85 Z" fill="#d3c8ab" opacity="0.3"/>
      
      <!-- Dot pattern -->
      <circle cx="20" cy="20" r="1" fill="#d3c8ab" opacity="0.4"/>
      <circle cx="80" cy="20" r="1" fill="#d3c8ab" opacity="0.4"/>
      <circle cx="20" cy="80" r="1" fill="#d3c8ab" opacity="0.4"/>
      <circle cx="80" cy="80" r="1" fill="#d3c8ab" opacity="0.4"/>
      
      <circle cx="50" cy="20" r="1" fill="#d3c8ab" opacity="0.4"/>
      <circle cx="50" cy="80" r="1" fill="#d3c8ab" opacity="0.4"/>
      <circle cx="20" cy="50" r="1" fill="#d3c8ab" opacity="0.4"/>
      <circle cx="80" cy="50" r="1" fill="#d3c8ab" opacity="0.4"/>
      
      <!-- Subtle accents -->
      <circle cx="35" cy="35" r="1" fill="#6b7f3e" opacity="0.15"/>
      <circle cx="65" cy="35" r="1" fill="#6b7f3e" opacity="0.15"/>
      <circle cx="35" cy="65" r="1" fill="#6b7f3e" opacity="0.15"/>
      <circle cx="65" cy="65" r="1" fill="#6b7f3e" opacity="0.15"/>
    </pattern>
  </defs>
  
  <rect width="100" height="100" fill="url(#moroccan-banner-pattern)"/>
</svg> 